<?xml version="1.0" standalone="no"?><!DOCTYPE svg PUBLIC "-//W3C//DTD SVG 1.1//EN" "http://www.w3.org/Graphics/SVG/1.1/DTD/svg11.dtd"><svg t="1696920578242" class="icon" viewBox="0 0 1024 1024" version="1.1" xmlns="http://www.w3.org/2000/svg" p-id="8580" xmlns:xlink="http://www.w3.org/1999/xlink" width="16" height="16"><path d="M106.666667 874.666667c0 23.466667 19.2 42.666667 42.666666 42.666666h725.333334c23.466667 0 42.666667-19.2 42.666666-42.666666V362.666667H106.666667v512z m247.466666-100.266667c34.133333 6.4 78.933333 0 78.933334 0 12.8 25.6 46.933333 17.066667 46.933333 17.066667 8.533333 12.8 53.333333 55.466667 53.333333 55.466666-125.866667 10.666667-179.2-72.533333-179.2-72.533333z m245.333334-119.466667s-29.866667 42.666667-93.866667 74.666667c0 0-12.8-29.866667-46.933333-23.466667 0 0-12.8-25.6-14.933334-102.4 0 0 29.866667 2.133333 34.133334-32 0 0 57.6 6.4 104.533333 32 0 0-10.666667 34.133333 17.066667 51.2z m-36.266667 185.6s-44.8-27.733333-66.133333-64c0 0 8.533333-4.266667 12.8-25.6 0 0 70.4-23.466667 113.066666-89.6 0 0 12.8 0 23.466667-6.4 0 0 32 29.866667 46.933333 70.4 0 0-32 87.466667-130.133333 115.2z m113.066667-300.8s51.2 57.6 27.733333 155.733334c0 0-27.733333-44.8-42.666667-55.466667 0 0 12.8-23.466667-2.133333-42.666667 0 0 12.8-25.6 17.066667-57.6z m-19.2-25.6c-2.133333 44.8-14.933333 68.266667-14.933334 68.266667-23.466667-14.933333-46.933333 4.266667-46.933333 4.266667-55.466667-34.133333-117.333333-38.4-117.333333-38.4 0-10.666667-14.933333-23.466667-14.933334-23.466667 6.4-23.466667 46.933333-78.933333 46.933334-78.933333 100.266667 4.266667 147.2 68.266667 147.2 68.266666z m-179.2-64s-19.2 25.6-36.266667 68.266667c0 0-36.266667-4.266667-44.8 34.133333 0 0-40.533333 6.4-74.666667 25.6 0 0 34.133333-106.666667 155.733334-128z m-166.4 160c32-23.466667 83.2-34.133333 83.2-34.133333 4.266667 21.333333 25.6 27.733333 25.6 27.733333-4.266667 57.6 14.933333 110.933333 14.933333 110.933334-17.066667 12.8-17.066667 40.533333-17.066667 40.533333-42.666667 4.266667-85.333333-4.266667-85.333333-4.266667-38.4-70.4-21.333333-140.8-21.333333-140.8zM874.666667 106.666667H149.333333c-23.466667 0-42.666667 19.2-42.666666 42.666666v149.333334h810.666666V149.333333c0-23.466667-19.2-42.666667-42.666666-42.666666z m-565.333334 128h-85.333333C206.933333 234.666667 192 219.733333 192 202.666667S206.933333 170.666667 224 170.666667h85.333333c17.066667 0 32 14.933333 32 32s-14.933333 32-32 32z m490.666667 0h-341.333333c-17.066667 0-32-14.933333-32-32S441.6 170.666667 458.666667 170.666667h341.333333c17.066667 0 32 14.933333 32 32s-14.933333 32-32 32z" p-id="8581" fill="#515151"></path></svg>